/* XPM */
static char * mini_dune_4kids_xpm[] = {
"16 16 16 1",
" 	c None",
".	c #FFFF00",
"+	c #737373",
"@	c #949494",
"#	c #000000",
"$	c #424242",
"%	c #212121",
"&	c #0000FF",
"*	c #FF0000",
"=	c #00FF00",
"-	c #ADADAD",
";	c #999999",
">	c #BDBDBD",
",	c #CCCCCC",
"'	c #636363",
")	c #9497A6",
"                ",
"                ",
"      .         ",
"     ...        ",
" +  ....        ",
"+@###.###       ",
"@@###.###   $   ",
"@.###.###. %&%* ",
".......... =.=*+",
".#.....#...%-%*@",
".#######.%#;>;##",
"..#####...#>,>#@",
".'........#>,>#@",
")++++++@@@#>,>#-",
")+@@@@@@@@@%%%@;",
"))))))))))).).))"};
