/* XPM */
/* 
 * This file is free software; the Free Software Foundation
 * gives unlimited permission to copy, distribute and modify it.
 */
static char * mini_dune_xpm[] = {
"16 16 16 1",
" 	c None",
".	c #FFFF00",
"+	c #737373",
"@	c #636363",
"#	c #949494",
"$	c #424242",
"%	c #212121",
"&	c #0000FF",
"*	c #FF0000",
"=	c #00FF00",
"-	c #ADADAD",
";	c #000000",
">	c #999999",
",	c #BDBDBD",
"'	c #CCCCCC",
")	c #9497A6",
"                ",
"                ",
"      .         ",
"     ...        ",
" +  ...@        ",
"+##.....@       ",
"##.....@.   $   ",
"#.......@. %&%* ",
".........@ =.=*+",
"..........@%-%*#",
".........%;>,>;;",
"..........;,',;#",
".@..$$....;,',;#",
")++++++###;,',;-",
")+#########%%%#>",
"))))))))))).).))"};
