/* XPM */
/* 
 * This file is free software; the Free Software Foundation
 * gives unlimited permission to copy, distribute and modify it.
 */
static char * dune_xpm[] = {
"32 32 13 1",
" 	c None",
".	c #191919",
"+	c #999999",
"@	c #E5E5E5",
"#	c #666667",
"$	c #000000",
"%	c #333333",
"&	c #B2B2B2",
"*	c #FFFFFF",
"=	c #CCCCCC",
"-	c #7F7F7F",
";	c #4C4C4C",
">	c #7F7F00",
"    .+@@@#$                     ",
"$.%+&****=+%$                   ",
"-&=******@@&-;. .;;;$           ",
"-+=@******@@==&-+=@=++#...$     ",
"+++=@******=->=@@@@@*@@=&+;;$   ",
"-=++=@@*@@&>>>-=@@@**@@@@==&+%.$",
"+=&+&@@@@=>>>>.-======@===&==&&#",
"-==&+++++>>>>>>.#&=&&===========",
"+===+-+->>>>>>>%%&&&&===@@@=====",
"-&=&&&>>>>>>>>>%%%&=&&&&==@=@@==",
"++=@&#>>>>>>>>>%%%%==&+&&&=@@@@@",
"-&==>>>>>>>>>>>>%.%-&&&&&+&===@@",
"+=+>>>>>>>>>>>>>%%%%%=====&=&&==",
"+->>>>>>>>>>>>>>%%%%%+=========&",
">>>>>>>>>>>>>>>>>%%%.%&@========",
">>>>>>>>>>>>>>>>>%%%%%%=======&=",
">>>>>>>>>>>>>>>>>%%.%%%=@==&&&&&",
">>>>>>>>>>>>>>>>>..%%.#&&&&&&&+&",
">>>>>>>>>>>>>>>>>>..%;&&&&&+&&&&",
">>>>>>>>>>>>>>>>>>.%.#&&++&&+&&&",
">>>>>>>>>>>>>>>>>>.%%-+++&&&&&=&",
"#>>>>>>>>>>>>>>>>>%.%&&&&&&&=&==",
"++>>>>>>>>>>>>>>>>.%+&&&&&&=&===",
"----+>>>>>>>>>>>>>>;&&&&&&======",
"+&+&&+&&&>>>>>>>>>>-==&&=======@",
"-=&+&&&=&==+=>>>>++&=@=======--@",
"+====&&===+&=&=&============-;-=",
"-+&=&=====&&==&======&=====&%-++",
"&++&+&&&+&+=====&======@==@+.+--",
"-=&+&+&=++&&+++++=======@@@=+&--",
"+===+&+==&+--++&+&==========&++@",
"-++--++&-++---+++++++++++++++++="};
