/* XPM */
/* 
 * This file is free software; the Free Software Foundation
 * gives unlimited permission to copy, distribute and modify it.
 */
static char * dune4kids_xpm[] = {
"48 48 269 2",
"  	c None",
". 	c #BDBDBD",
"+ 	c #E7E7E7",
"@ 	c #EFEFEF",
"# 	c #DEDEDE",
"$ 	c #D6D6D6",
"% 	c #F7F7F7",
"& 	c #ADADAD",
"* 	c #FFFFFF",
"= 	c #6B6B6B",
"- 	c #CECECE",
"; 	c #000000",
"> 	c #8C8C8C",
", 	c #C6C6C6",
"' 	c #9C9C9C",
") 	c #7B7B7B",
"! 	c #B5B5B5",
"~ 	c #949494",
"{ 	c #848484",
"] 	c #736300",
"^ 	c #312900",
"/ 	c #7B6B00",
"( 	c #A5A5A5",
"_ 	c #292100",
": 	c #7B6300",
"< 	c #A5E7A5",
"[ 	c #ADF7AD",
"} 	c #A5EFA5",
"| 	c #528C00",
"1 	c #4A8C00",
"2 	c #637B00",
"3 	c #9C4A00",
"4 	c #7BBD7B",
"5 	c #39E739",
"6 	c #5AEF5A",
"7 	c #73E773",
"8 	c #39B500",
"9 	c #31B500",
"0 	c #4AB500",
"a 	c #29C600",
"b 	c #DE1800",
"c 	c #292900",
"d 	c #6BBD6B",
"e 	c #4ADE4A",
"f 	c #8CA58C",
"g 	c #637300",
"h 	c #42DE42",
"i 	c #4AE74A",
"j 	c #4A8400",
"k 	c #10C600",
"l 	c #187300",
"m 	c #C6CEC6",
"n 	c #10F710",
"o 	c #8CD68C",
"p 	c #BD1000",
"q 	c #214200",
"r 	c #18A500",
"s 	c #089C00",
"t 	c #21F721",
"u 	c #C6D6C6",
"v 	c #CE2100",
"w 	c #315A00",
"x 	c #18F718",
"y 	c #B5D6B5",
"z 	c #9C5200",
"A 	c #84E784",
"B 	c #D62100",
"C 	c #845200",
"D 	c #844200",
"E 	c #BD3100",
"F 	c #108400",
"G 	c #CE2900",
"H 	c #A53900",
"I 	c #A54200",
"J 	c #BD2900",
"K 	c #10AD00",
"L 	c #73DE73",
"M 	c #5A5A18",
"N 	c #635231",
"O 	c #524A39",
"P 	c #634242",
"Q 	c #9C1039",
"R 	c #5A4A39",
"S 	c #5A5229",
"T 	c #6B5A10",
"U 	c #B53900",
"V 	c #08B500",
"W 	c #84DE84",
"X 	c #42398C",
"Y 	c #2121AD",
"Z 	c #3131A5",
"` 	c #312994",
" .	c #393194",
"..	c #63107B",
"+.	c #5A2194",
"@.	c #39317B",
"#.	c #31299C",
"$.	c #2921A5",
"%.	c #4A3973",
"&.	c #4A4252",
"*.	c #AD3129",
"=.	c #C6DEC6",
"-.	c #4A425A",
";.	c #29219C",
">.	c #EF1000",
",.	c #735A00",
"'.	c #5A4A42",
").	c #4A3952",
"!.	c #39318C",
"~.	c #4A108C",
"{.	c #3921A5",
"].	c #216B00",
"^.	c #39EF39",
"/.	c #2121BD",
"(.	c #312984",
"_.	c #635242",
":.	c #B54200",
"<.	c #C62900",
"[.	c #E71000",
"}.	c #212142",
"|.	c #94D694",
"1.	c #635218",
"2.	c #C62100",
"3.	c #945200",
"4.	c #181052",
"5.	c #1010AD",
"6.	c #211800",
"7.	c #292129",
"8.	c #215200",
"9.	c #4AEF4A",
"0.	c #8C5200",
"a.	c #DE2100",
"b.	c #AD3900",
"c.	c #C63900",
"d.	c #21215A",
"e.	c #0808BD",
"f.	c #212173",
"g.	c #31EF31",
"h.	c #A5D6A5",
"i.	c #B53100",
"j.	c #943900",
"k.	c #100873",
"l.	c #63DE63",
"m.	c #5AD65A",
"n.	c #946300",
"o.	c #845A00",
"p.	c #101063",
"q.	c #18189C",
"r.	c #84B584",
"s.	c #42EF42",
"t.	c #8C4200",
"u.	c #D62900",
"v.	c #844A00",
"w.	c #181039",
"x.	c #211873",
"y.	c #21E721",
"z.	c #6363C6",
"A.	c #4242E7",
"B.	c #D61800",
"C.	c #4A4ACE",
"D.	c #7373CE",
"E.	c #736B00",
"F.	c #7B5A00",
"G.	c #E71800",
"H.	c #8C8CBD",
"I.	c #7BC67B",
"J.	c #39A500",
"K.	c #AD4200",
"L.	c #21A563",
"M.	c #8CC68C",
"N.	c #18EF00",
"O.	c #31849C",
"P.	c #94C694",
"Q.	c #31BD00",
"R.	c #6B7BC6",
"S.	c #10738C",
"T.	c #52DE52",
"U.	c #63E763",
"V.	c #945A00",
"W.	c #4A7BA5",
"X.	c #5AE773",
"Y.	c #D67373",
"Z.	c #DE5A5A",
"`.	c #944A00",
" +	c #216BAD",
".+	c #4A7BAD",
"++	c #21EF21",
"@+	c #94DE94",
"#+	c #E76B6B",
"$+	c #CE8484",
"%+	c #C69C9C",
"&+	c #EF5252",
"*+	c #1052B5",
"=+	c #ADADD6",
"-+	c #E73939",
";+	c #CEA5A5",
">+	c #E75252",
",+	c #D66B6B",
"'+	c #218C84",
")+	c #314AD6",
"!+	c #42E742",
"~+	c #8C9421",
"{+	c #EF3939",
"]+	c #214AD6",
"^+	c #A5A5C6",
"/+	c #6B6B63",
"(+	c #424242",
"_+	c #739418",
":+	c #E75A5A",
"<+	c #1829E7",
"[+	c #9494CE",
"}+	c #4A4AEF",
"|+	c #9C9CCE",
"1+	c #D68C8C",
"2+	c #EF5A5A",
"3+	c #94CE94",
"4+	c #5AE75A",
"5+	c #B5CEB5",
"6+	c #4AB57B",
"7+	c #1842CE",
"8+	c #ADADCE",
"9+	c #8C8CCE",
"0+	c #3939EF",
"a+	c #6363DE",
"b+	c #9C9CD6",
"c+	c #DE7B7B",
"d+	c #8CCE8C",
"e+	c #108C73",
"f+	c #1839DE",
"g+	c #A5A5D6",
"h+	c #8484E7",
"i+	c #8C429C",
"j+	c #DE737B",
"k+	c #7BD67B",
"l+	c #6BA518",
"m+	c #73DE63",
"n+	c #181818",
"o+	c #7339BD",
"p+	c #3921D6",
"q+	c #4A4AE7",
"r+	c #9494D6",
"s+	c #ADADC6",
"t+	c #DE6363",
"u+	c #C67B4A",
"v+	c #73D673",
"w+	c #5ADE5A",
"x+	c #E78484",
"y+	c #7B7BE7",
"z+	c #5A5AE7",
"A+	c #6321BD",
"B+	c #7373E7",
"C+	c #6B6BE7",
"D+	c #636BDE",
"E+	c #637BD6",
"F+	c #4252D6",
"G+	c #3952E7",
"H+	c #394ADE",
"I+	c #BD8400",
"J+	c #B57B00",
"K+	c #DE7373",
"L+	c #D67B7B",
"M+	c #DE4252",
"N+	c #AD6394",
"O+	c #9494DE",
"P+	c #7B7BD6",
"Q+	c #8C8CDE",
"R+	c #8484D6",
"S+	c #8C8CD6",
"T+	c #BDBDCE",
"                . + @ + # .                                                                     ",
"              $ # % % % + # .                                                                   ",
"        & # + @ * * * * % + # . &                                                               ",
"= - $ + + % % * * * * * * * @ + ; ; ; ; ; ; ; ; ; ; ; ; ; ;                                     ",
"= > , $ @ @ * % * * * * * * ; ; ; ; ; ; ; ; ; ; ; ; ; ; ; ; ; ; ;                               ",
"= ' ) . $ @ % * * * * * * ; ; ; ; ; ; ; ; ; ; ; ; ; ; ; ; ; ; ; ; ;                             ",
"= ! ~ { ! $ @ % * * * * ; ; ; % @ # $ ] ^ $ # $ # $ # # @ ; ; ; ; ; ; ; . . ,                   ",
"= - & > > ! $ @ % * * ; ; ; % * @ ] ] / ^ # # + # + # + + @ @ ; ; ; ; ; ; - ! , , ,             ",
"= - , ( ~ ~ ! - + @ ; ; ; % * % ] ] ] ] ] _ # $ # # + # + + @ + ; ; ; ; ; ; $ , . , - ,         ",
"= $ , . ( ' ' ! - ; ; ; % * % : ] / ] : ] ^ ^ $ - $ $ $ # # # # # + ; ; ; ; ; - - , . , , - -   ",
"= - , . ! ( ' ' ; ; ; < [ } | 1 2 ] ] ] 3 _ ^ _ , . . ! . . ; ; ; ; , ; ; ; ; ; . , - , . ! . . ",
"= , . . ! & ( 4 ; ; 5 6 7 8 9 0 a ; ; ; ; b c ^ ^ . ! ; ; ; ; ; ; ; ; - ; ; ; ; ; , ! , - - , , ",
"= ! ! ( & d e ; ; f & & ] ] ; ; ; ; ; ; ; ; g _ ^ & ; ; ; ; ; ; ; ; ; - $ ; ; ; ; ; $ , . . - - ",
"= , . . h i ; ; ; ' ] : ] ; ; ; ; ; ; ; ; ; j k l ^ ; ; ; ; ; ; ; ; ; - $ # ; ; ; ; # # $ $ . . ",
"= , m n o ; ; ; . ] ] ] ] ; ; ; ; ; ; ; ; ; p q r s ; ; ; ; ; ; ; ; ; . - - ; ; ; ; ; + + + $ - ",
"= - t u - ; ; ; ] ] ] / ] ; ; ; ; ; ; ; ; ; v ^ ^ w ; ; ; ; ; ; ; ; ; ( & . - $ ; ; ; + + + # # ",
"= x y - ; ; ; ; ] ] ] ] ] ; ; ; ; ; ; ; ; ; z _ ^ _ ^ ; ; ; ; ; ; ; ; ( ( ' ~ ! - ; ; ; + + + # ",
"= A - - ; ; ; : ] / ] : ] / ; ; ; ; ; ; ; ; B ^ c ^ ^ ; ; ; ; ; ; ; ( & & & & ! & & ; ; ; + # + ",
"= , , , ; ; ; ] ] ] ] ] ] C ; ; ; ; ; ; ; D E ; ; ; ^ _ ^ F 5 & ! ! ! ! . . . . . . ; ; ; ( $ $ ",
"= , . / ; ; ; / ] ] ] / ] G H / ] ] ] / ] I J ; ; ; c ^ ^ ^ K L , , , - - - - - - - ; ; ; , . ! ",
"= ! ] ] ; ; ; ] ] M N O P Q R S T ] ] ] ] H U ; ; ; ^ _ ^ _ ^ V W - $ - $ - $ - - - - ; ; ; , . ",
"= / ] : ; ; ; X Y Z `  ...+.@.#.$.Z ` %.&.*.I ; ; ; ^ ^ c ^ ^ ^ x =.$ $ $ $ $ $ - $ - ; ; ; , - ",
"= ] -.;.; ; ; S T ] ] ] >.,.] ] ] T '.).!.~.{.; ; ; ^ _ ^ _ ^ _ ].^.$ - $ - - - - - - ; ; ; , , ",
"= /.(._.; ; ; / ] ] ] :.<.] ] / ] ] ] / ] [.R ; ; ; }.^ ^ ^ c ^ ^ k |.$ - - - - , , , ; ; ; . . ",
"= 1.] ] ] ; ; ] ] ] ] 2.3.] ] ] ] ] ] ] 3.J ] ; ; 4.5.6.7._ ^ _ ^ 8.9., - , , . . . . ; ; ; ! & ",
"= / ] : ] ; ; : ] / 0.a.] / ] : ] / ] : b.c.] : ] ^ ^ d.e.f.^ ^ c ^ g.h.. , . . ! . ! ; ; ; ( ( ",
"= ] ] ] ] ; ; ] ] ] i.i.] ] ] ] ] ] ] ] E j.] ] ] ] ^ _ ^ k.5._ ^ ! l.m.. ; ; & ! & & ; ; ; ( ( ",
"= ] ] / ] ; ; / ] ] b n.] ] ] / ] ] ] / b o.] / ] ] c ^ ^ ^ p.q.^ ! r.s.& ; ; & & & & ; ; & & & ",
"= ] ] ] ] ; ; ] ] t.u.; ] ] ] ] ] ] ] v.v ] ] ] ] ] ^ _ ^ _ ^ w.x.& & y.; ; & ( & & & ; ; & ! & ",
"= / ] : ] ; ; ; ] c.b.; ] / ] : ] / ] U i./ ] : ] / ^ ^ c ^ ^ ^ z.A.( 5 ; ; & & & ! & ; ; . ! . ",
"= ] ] ] ] ; ; ; ] B.0.] ; ] ] ] ] ] ] v 3 ] ] ] ] ] ] _ ^ _ ^ _ ( C.D.; ; & & & ! & ! ; ; ! . . ",
"= E.] / ] ; ; ; C b ] / ; ; ] / ] ] F.G.] ] ] / ] ] ] ^ ^ ^ c & & H.; ; I.! & ! ! ! ! ; ; , . , ",
"= J.] ] ] ; ; ; ; E ] ] ; ; ; ; ] ] K.J ] ] ] ] ] ] ] _ ^ _ ^ & & ; ; L.M.! ! ! . ! . ; . . , , ",
"= N.g : ] / ; ; ; ; ] : ] / ; ; ; ; ; ; ] / ] : ] / ] ^ ; ; ; ; ; ; ; O.P.. . . . , ; ; , - , - ",
"= 1 Q.] ] ] ; ; ; ; ; ] ] ] ] ] ; ; ; ; ; ; ; ; ; ; ; ; ; ; ; ; ! ! R.S.. ! . . , . ; ; - , - - ",
"= , T.U.. , . V.; ; ; ; ] ] ] / ] I i./ ; ; ; ; ; ; ; ; ; . ! . ! . W.X.. , . , , , ; ; - - - $ ",
"= , , h |.. , Y.Z.; ; ; ; . ] ] ] B.`.] ] ] ] ] ] ] ] ] ^ ! . . . .  +.+, . , , - ; ; - - - $ - ",
"= , , , ++@+. #+$+, ; ; ; ; . . %+&+. . . . . . . / ] : ] , . , . h.*+=+, - , - ; ; - $ - $ $ $ ",
"= . , . , e L -+;+. . ; ; ; ; . >+,+. . . . . . . . . . . . . . , '+)+, - , - ; ; ; - - ; ; $ $ ",
"= , , , , , !+~+. , . , ; ; ; , {+, . , . , . , . , . , , , , , s.]+^+- - - ; ; ; $ - ; /+(+$ # ",
"= , , , , , ;+_+^.P., . , ; ; ; :+. , . , . , . , , , , , , , l.<+[+- , ; ; ; - $ - $ ; ~ ' $ $ ",
"= }+|+, , , 1+2+3+9.4+5+, , ; ; ; , , , , , , , , - , - , - 6+7+8+- - ; ; $ - $ - $ ; ; . ! ; # ",
"= 9+0+a+b+, c+Z., , L g.l.d+; ; ; ; ; ; ; , , , , , , , W e+f+g+- ; ; ; $ - $ - $ ; ; ; . & ; $ ",
"= - , h+A.}+i+j+, , , , k+9.l+m+o ; ; ; ; ; ; ; ; ; ; ; ; ; ; ; ; ; ; $ - $ - $ $ $ ; . , ! n+# ",
"= , - , , [+o+p+q+a+r+s+, t+u+v+4+!+s.w+; ; ; ; ; ; ; ; ; - - - - - $ - $ - $ - $ $ $ ~ ! ! ; $ ",
"= - , - , - t+x+[+y+z+}+0+A+z+B+a+C+D+E+F+G+H+; ; ; ; - - $ - $ - $ $ $ $ $ $ $ $ # $ o.o.I+J+# ",
"= , , , - , K+L+- , - , M+N+O+P+Q+R+Q+S+g+T+- - - - - - - - - - $ - $ - $ - $ $ $ $ $ $ # $ # # ",
"= = = = = = = = = = = = = = = = = = = = = = = = = = = = = = = = = = = = = = = = = = = = = = = + "};
