/* XPM */
/* 
 * This file is free software; the Free Software Foundation
 * gives unlimited permission to copy, distribute and modify it.
 */
static char * dune_xpm[] = {
"48 48 322 2",
"  	c None",
". 	c #BDBDBD",
"+ 	c #E7E7E7",
"@ 	c #EFEFEF",
"# 	c #DEDEDE",
"$ 	c #D6D6D6",
"% 	c #F7F7F7",
"& 	c #ADADAD",
"* 	c #FFFFFF",
"= 	c #6B6B6B",
"- 	c #CECECE",
"; 	c #C6C6C6",
"> 	c #949494",
", 	c #8C8C8C",
"' 	c #9C9C9C",
") 	c #7B7B7B",
"! 	c #B5B5B5",
"~ 	c #848484",
"{ 	c #736300",
"] 	c #312900",
"^ 	c #7B6B00",
"/ 	c #A5A5A5",
"( 	c #292100",
"_ 	c #7B6300",
": 	c #C6D6C6",
"< 	c #A5E7A5",
"[ 	c #ADF7AD",
"} 	c #A5EFA5",
"| 	c #528C00",
"1 	c #4A8C00",
"2 	c #637B00",
"3 	c #9C4A00",
"4 	c #7BBD7B",
"5 	c #52D652",
"6 	c #4ADE4A",
"7 	c #39E739",
"8 	c #5AEF5A",
"9 	c #73E773",
"0 	c #39B500",
"a 	c #31B500",
"b 	c #4AB500",
"c 	c #29C600",
"d 	c #29CE00",
"e 	c #8C8400",
"f 	c #945200",
"g 	c #DE1800",
"h 	c #292900",
"i 	c #6BBD6B",
"j 	c #39D639",
"k 	c #63C663",
"l 	c #8CA58C",
"m 	c #845200",
"n 	c #AD4A00",
"o 	c #39A500",
"p 	c #42AD00",
"q 	c #637300",
"r 	c #42DE42",
"s 	c #4AE74A",
"t 	c #8CB58C",
"u 	c #7B5A00",
"v 	c #EF1800",
"w 	c #848400",
"x 	c #4A8400",
"y 	c #10C600",
"z 	c #187300",
"A 	c #C6CEC6",
"B 	c #10F710",
"C 	c #8CD68C",
"D 	c #E71800",
"E 	c #944A00",
"F 	c #8C4A00",
"G 	c #BD1000",
"H 	c #214200",
"I 	c #18A500",
"J 	c #089C00",
"K 	c #294A00",
"L 	c #21F721",
"M 	c #BD3900",
"N 	c #BD2900",
"O 	c #845A00",
"P 	c #CE2100",
"Q 	c #315A00",
"R 	c #08CE00",
"S 	c #218400",
"T 	c #18F718",
"U 	c #B5D6B5",
"V 	c #EF0800",
"W 	c #7B5200",
"X 	c #9C5200",
"Y 	c #10A500",
"Z 	c #5AE75A",
"` 	c #84E784",
" .	c #AD4200",
"..	c #945A00",
"+.	c #D62100",
"@.	c #187B00",
"#.	c #42EF42",
"$.	c #E71000",
"%.	c #844200",
"&.	c #BD3100",
"*.	c #108400",
"=.	c #CE2900",
"-.	c #A53900",
";.	c #A54200",
">.	c #10AD00",
",.	c #73DE73",
"'.	c #5A5A18",
").	c #635231",
"!.	c #524A39",
"~.	c #634242",
"{.	c #9C1039",
"].	c #5A4A39",
"^.	c #5A5229",
"/.	c #6B5A10",
"(.	c #B53900",
"_.	c #08B500",
":.	c #84DE84",
"<.	c #635221",
"[.	c #5A5263",
"}.	c #393184",
"|.	c #42398C",
"1.	c #2121AD",
"2.	c #3131A5",
"3.	c #312994",
"4.	c #393194",
"5.	c #63107B",
"6.	c #5A2194",
"7.	c #39317B",
"8.	c #31299C",
"9.	c #2921A5",
"0.	c #4A3973",
"a.	c #4A4252",
"b.	c #AD3129",
"c.	c #C6DEC6",
"d.	c #4A425A",
"e.	c #29219C",
"f.	c #2121B5",
"g.	c #312973",
"h.	c #EF1000",
"i.	c #735A00",
"j.	c #5A4A42",
"k.	c #4A3952",
"l.	c #39318C",
"m.	c #4A108C",
"n.	c #3921A5",
"o.	c #39316B",
"p.	c #635A21",
"q.	c #216B00",
"r.	c #39EF39",
"s.	c #2121BD",
"t.	c #312984",
"u.	c #635242",
"v.	c #B54200",
"w.	c #C62900",
"x.	c #4A4273",
"y.	c #2118B5",
"z.	c #181094",
"A.	c #212142",
"B.	c #94D694",
"C.	c #635218",
"D.	c #C62100",
"E.	c #181052",
"F.	c #1010AD",
"G.	c #211800",
"H.	c #292129",
"I.	c #215200",
"J.	c #4AEF4A",
"K.	c #8C5200",
"L.	c #DE2100",
"M.	c #AD3900",
"N.	c #C63900",
"O.	c #21215A",
"P.	c #0808BD",
"Q.	c #212173",
"R.	c #31EF31",
"S.	c #A5D6A5",
"T.	c #B53100",
"U.	c #943900",
"V.	c #100873",
"W.	c #63DE63",
"X.	c #5AD65A",
"Y.	c #946300",
"Z.	c #101063",
"`.	c #18189C",
" +	c #84B584",
".+	c #8C4200",
"++	c #D62900",
"@+	c #844A00",
"#+	c #181039",
"$+	c #211873",
"%+	c #21E721",
"&+	c #6363C6",
"*+	c #4242E7",
"=+	c #D61800",
"-+	c #4A4ACE",
";+	c #7373CE",
">+	c #4ACE4A",
",+	c #84C684",
"'+	c #736B00",
")+	c #8C8CBD",
"!+	c #2929E7",
"~+	c #7BC67B",
"{+	c #5252E7",
"]+	c #21A563",
"^+	c #8CC68C",
"/+	c #18EF00",
"(+	c #A55200",
"_+	c #5A5AD6",
":+	c #31849C",
"<+	c #94C694",
"[+	c #31BD00",
"}+	c #6B7BC6",
"|+	c #10738C",
"1+	c #52DE52",
"2+	c #63E763",
"3+	c #4A7BA5",
"4+	c #5AE773",
"5+	c #D67373",
"6+	c #DE5A5A",
"7+	c #216BAD",
"8+	c #4A7BAD",
"9+	c #21EF21",
"0+	c #94DE94",
"a+	c #E76B6B",
"b+	c #CE8484",
"c+	c #C69C9C",
"d+	c #EF5252",
"e+	c #1052B5",
"f+	c #ADADD6",
"g+	c #E73939",
"h+	c #CEA5A5",
"i+	c #E75252",
"j+	c #D66B6B",
"k+	c #218C84",
"l+	c #314AD6",
"m+	c #000000",
"n+	c #42E742",
"o+	c #8C9421",
"p+	c #EF3939",
"q+	c #214AD6",
"r+	c #A5A5C6",
"s+	c #6B6B63",
"t+	c #424242",
"u+	c #739418",
"v+	c #D66363",
"w+	c #E75A5A",
"x+	c #1829E7",
"y+	c #9494CE",
"z+	c #4A4AEF",
"A+	c #9C9CCE",
"B+	c #D68C8C",
"C+	c #EF5A5A",
"D+	c #94CE94",
"E+	c #B5CEB5",
"F+	c #EF4242",
"G+	c #C6ADAD",
"H+	c #4AB57B",
"I+	c #1842CE",
"J+	c #ADADCE",
"K+	c #8C8CCE",
"L+	c #3939EF",
"M+	c #6363DE",
"N+	c #9C9CD6",
"O+	c #DE7B7B",
"P+	c #8CCE8C",
"Q+	c #DE7373",
"R+	c #E74A4A",
"S+	c #108C73",
"T+	c #1839DE",
"U+	c #A5A5D6",
"V+	c #8484E7",
"W+	c #8C429C",
"X+	c #DE737B",
"Y+	c #7BD67B",
"Z+	c #6BA518",
"`+	c #73DE63",
" @	c #B5C6B5",
".@	c #5AC673",
"+@	c #21849C",
"@@	c #1839D6",
"#@	c #6B7BDE",
"$@	c #181818",
"%@	c #7339BD",
"&@	c #3921D6",
"*@	c #4A4AE7",
"=@	c #9494D6",
"-@	c #ADADC6",
";@	c #DE6363",
">@	c #C67B4A",
",@	c #73D673",
"'@	c #5ADE5A",
")@	c #4AD663",
"!@	c #29AD6B",
"~@	c #3184A5",
"{@	c #1852BD",
"]@	c #3963CE",
"^@	c #636BD6",
"/@	c #E78484",
"(@	c #7B7BE7",
"_@	c #5A5AE7",
":@	c #6321BD",
"<@	c #7373E7",
"[@	c #6B6BE7",
"}@	c #636BDE",
"|@	c #637BD6",
"1@	c #4252D6",
"2@	c #3952E7",
"3@	c #394ADE",
"4@	c #5A63E7",
"5@	c #7373DE",
"6@	c #A5A5DE",
"7@	c #BD8400",
"8@	c #B57B00",
"9@	c #D67B7B",
"0@	c #DE4252",
"a@	c #AD6394",
"b@	c #9494DE",
"c@	c #7B7BD6",
"d@	c #8C8CDE",
"e@	c #8484D6",
"f@	c #8C8CD6",
"g@	c #BDBDCE",
"                . + @ + # .                                                                     ",
"              $ # % % % + # .                                                                   ",
"        & # + @ * * * * % + # . &                                                               ",
"= - $ + + % % * * * * * * * @ + ; . >                                                           ",
"= , ; $ @ @ * % * * * * * * * + # ; - . . &       . - ; - ;                                     ",
"= ' ) . $ @ % * * * * * * * * % + # - $ - $ - - - $ # + @ @ + + $ ;                             ",
"= ! > ~ ! $ @ % * * * * * * * % @ # $ { ] $ # $ # $ # # @ @ % @ @ # # ; . . ;                   ",
"= - & , , ! $ @ % * * * * * % * @ { { ^ ] # # + # + # + + @ @ % @ @ + + $ - ! ; ; ;             ",
"= - ; / > > ! - + @ % % * % * % { { { { { ( # $ # # + # + + @ + @ + + # # $ $ ; . ; - ;         ",
"= $ ; . / ' ' ! - + @ % % * % _ { ^ { _ { ] ] $ - $ $ $ # # # # # + # $ - $ - - - ; . ; ; - -   ",
"= - ; . ! / ' ' ! . : < [ } | 1 2 { { { 3 ( ] ( ; . . ! . . ; . ; ; ; ; - ; ; ; . ; - ; . ! . . ",
"= ; . . ! & / 4 5 6 7 8 9 0 a b c d a e f g h ] ] . ! . ! . ! . . ; ; - - $ $ $ - ; ! ; - - ; ; ",
"= ! ! / & i 6 j k l & & { { { { { m n o d p q ( ] & ! ! ! ! . . ; ; - - $ $ # # # $ $ ; . . - - ",
"= ; . . r s t / ' ' { _ { ^ { _ u v { _ { w x y z ] . . ! . ! . . ; ; - $ # # # # + # # $ $ . . ",
"= ; A B C ; ; . . { { { { { { { D E { { { F G H I J K . . ! ! & ! & ! . - - $ $ # # + + + # $ - ",
"= - L : - - - - { { { ^ { { { M N { { ^ { O P ] ] Q R S ; ; . . ! & / / & . - $ $ # # + + + # # ",
"= T U - - - - { { { { { { { _ V { { { { { W X ( ] ( ] Y Z . . ! ! & & / / ' > ! - $ # # + + + # ",
"= ` - - - - { _ { ^ { _ { ^ N  .{ ^ { _ { ..+.] h ] ] ] @.#.! ! & & / & & & & ! & & ' $ $ + # + ",
"= ; ; ; ; { { { { { { { { m $.{ { { { { { %.&.( ] ( ] ( ] *.7 & ! ! ! ! . . . . . . . ! ! / $ $ ",
"= ; . ^ { { { ^ { { { ^ { =.-.^ { { { ^ { ;.N ^ ] ] h ] ] ] >.,.; ; ; - - - - - - - ; - ; ; . ! ",
"= ! { { { { { { { '.).!.~.{.].^./.{ { { { -.(.{ ] ( ] ( ] ( ] _.:.- $ - $ - $ - - - - - - ; ; . ",
"= ^ { _ <.[.}.|.1.2.3.4.5.6.7.8.9.2.3.0.a.b.;._ h ] ] ] h ] ] ] T c.$ $ $ $ $ $ - $ - - - - ; - ",
"= { d.e.f.g.d.^./.{ { { h.i.{ { { /.j.k.l.m.n.o.p.( ] ( ] ( ] ( q.r.$ - $ - - - - - - ; - ; ; ; ",
"= s.t.u.{ { { ^ { { { v.w.{ { ^ { { { ^ { $.].x.y.z.A.] ] ] h ] ] y B.$ - - - - ; ; ; ; . . . . ",
"= C.{ { { { { { { { { D.f { { { { { { { f N { { { E.F.G.H.( ] ( ] I.J.; - ; ; . . . . ! ! ! ! & ",
"= ^ { _ { ^ { _ { ^ K.L.{ ^ { _ { ^ { _ M.N.{ _ { ] ] O.P.Q.] ] h ] R.S.. ; . . ! . ! ! & & / / ",
"= { { { { { { { { { T.T.{ { { { { { { { &.U.{ { { { ] ( ] V.F.( ] ! W.X.. ! ! & ! & & / / / / / ",
"= { { ^ { { { ^ { { g Y.{ { { ^ { { { ^ g O { ^ { { h ] ] ] Z.`.] !  +#.& ! & & & & & & & & & & ",
"= { { { { { { { { .+++{ { { { { { { { @+P { { { { { ] ( ] ( ] #+$+& & %+& / & / & & & & & & ! & ",
"= ^ { _ { ^ { _ { N.M._ { ^ { _ { ^ { (.T.^ { _ { ^ ] ] h ] ] ] &+*+/ 7 t & & & & ! & ! ! . ! . ",
"= { { { { { { { { =+K.{ { { { { { { { P 3 { { { { { { ( ] ( ] ( / -+;+>+,+& & & ! & ! ! . ! . . ",
"= '+{ ^ { { { ^ m g { ^ { { { ^ { { u D { { { ^ { { { ] ] ] h & & )+!+s ~+! & ! ! ! ! . . ; . ; ",
"= o { { { { { { M.&.{ { { { { { { {  .N { { { { { { { ( ] ( ] & & & {+]+^+! ! ! . ! . . . . ; ; ",
"= /+q _ { ^ { _ N (+{ _ { ^ { _ { ^ N (+{ ^ { _ { ^ { ] h ] & ! ! ! _+:+<+. . . . ; . ; ; - ; - ",
"= 1 [+{ { { { { g i.{ { { { { { { i.$.{ { { { { { { { { ] ( ! ! ! ! }+|+. ! . . ; . ; ; - ; - - ",
"= ; 1+2+. ; . ..+.{ { ^ { { { ^ { ;.T.^ { { { ^ { { { ^ ] . ! . ! . 3+4+. ; . ; ; ; ; - - - - $ ",
"= ; ; r B.. ; 5+6+. . . . . { { { =+E { { { { { { { { { ] ! . . . . 7+8+; . ; ; - ; - - - - $ - ",
"= ; ; ; 9+0+. a+b+; . ; . ; . . c+d+. . . . . . . ^ { _ { ; . ; . S.e+f+; - ; - - - - $ - $ $ $ ",
"= . ; . ; 6 ,.g+h+. . . . . . . i+j+. . . . . . . . . . . . . . ; k+l+; - ; - - - - - - m+m+$ $ ",
"= ; ; ; ; ; n+o+. ; . ; . ; . ; p+; . ; . ; . ; . ; . ; ; ; ; ; #.q+r+- - - - $ - $ - m+s+t+$ # ",
"= ; ; ; ; ; h+u+r.<+; . ; . ; v+w+. ; . ; . ; . ; ; ; ; ; ; ; W.x+y+- ; - - - - $ - $ m+> ' $ $ ",
"= z+A+; ; ; B+C+D+J.Z E+; ; ; F+G+; ; ; ; ; ; ; ; - ; - ; - H+I+J+- - - - $ - $ - $ m+m+. ! m+# ",
"= K+L+M+N+; O+6+; ; ,.R.W.P+Q+R+; . ; ; ; ; ; ; ; ; ; ; :.S+T+U+- - - - $ - $ - $ m+m+m+. & m+$ ",
"= - ; V+*+z+W+X+; ; ; ; Y+J.Z+`+C U ; - ; - ; -  @0+.@+@@@#@- $ - $ - $ - $ - $ $ $ m+. ; ! $@# ",
"= ; - ; ; y+%@&@*@M+=@-@; ;@>@,@Z n+#.'@8 '@)@!@~@{@]@^@- - - - - - $ - $ - $ - $ $ $ > ! ! m+$ ",
"= - ; - ; - ;@/@y+(@_@z+L+:@_@<@M+[@}@|@1@2@3@4@5@6@- - - $ - $ - $ $ $ $ $ $ $ $ # $ O O 7@8@# ",
"= ; ; ; - ; Q+9@- ; - ; 0@a@b@c@d@e@d@f@U+g@- - - - - - - - - - $ - $ - $ - $ $ $ $ $ $ # $ # # ",
"= = = = = = = = = = = = = = = = = = = = = = = = = = = = = = = = = = = = = = = = = = = = = = = + "};
