#define aaaqTaOTn_width 16
#define aaaqTaOTn_height 16
#define aaaqTaOTn_x_hot 0
#define aaaqTaOTn_y_hot 0
static unsigned char aaaqTaOTn_bits[] = {
   0x00, 0x00, 0x80, 0x00, 0x40, 0x01, 0xa0, 0x00, 0x50, 0x03, 0xa8, 0x21,
   0x50, 0x77, 0xa9, 0xf2, 0x55, 0x8f, 0xa9, 0xde, 0x55, 0x8d, 0xa9, 0x8a,
   0x55, 0x89, 0xa9, 0x88, 0x01, 0x70, 0x01, 0x00};