<?xml version="1.0" encoding="UTF-8" standalone="no"?>
<svg
   xmlns:dc="http://purl.org/dc/elements/1.1/"
   xmlns:cc="http://creativecommons.org/ns#"
   xmlns:rdf="http://www.w3.org/1999/02/22-rdf-syntax-ns#"
   xmlns:svg="http://www.w3.org/2000/svg"
   xmlns="http://www.w3.org/2000/svg"
   xmlns:sodipodi="http://sodipodi.sourceforge.net/DTD/sodipodi-0.dtd"
   xmlns:inkscape="http://www.inkscape.org/namespaces/inkscape"
   enable-background="new 0 0 55 55"
   height="55px"
   version="1.1"
   viewBox="0 0 55 55"
   width="55px"
   x="0px"
   xml:space="preserve"
   y="0px"
   id="svg2"
   sodipodi:version="0.32"
   inkscape:version="0.46"
   sodipodi:docname="activity-dune.svg"
   inkscape:output_extension="org.inkscape.output.svg.inkscape"><metadata
   id="metadata18"><rdf:RDF><cc:Work
       rdf:about=""><dc:format>image/svg+xml</dc:format><dc:type
         rdf:resource="http://purl.org/dc/dcmitype/StillImage" /></cc:Work></rdf:RDF></metadata><defs
   id="defs16"><inkscape:perspective
     sodipodi:type="inkscape:persp3d"
     inkscape:vp_x="0 : 27.5 : 1"
     inkscape:vp_y="0 : 1000 : 0"
     inkscape:vp_z="55 : 27.5 : 1"
     inkscape:persp3d-origin="27.5 : 18.333333 : 1"
     id="perspective20" /></defs><sodipodi:namedview
   inkscape:window-height="687"
   inkscape:window-width="604"
   inkscape:pageshadow="2"
   inkscape:pageopacity="0.0"
   guidetolerance="10.0"
   gridtolerance="10.0"
   objecttolerance="10.0"
   borderopacity="1.0"
   bordercolor="#666666"
   pagecolor="#ffffff"
   id="base"
   showgrid="false"
   inkscape:zoom="1"
   inkscape:cx="7.6662637"
   inkscape:cy="28.903755"
   inkscape:window-x="62"
   inkscape:window-y="23"
   inkscape:current-layer="svg2" />
  
  
  
<path
   style="fill:none;fill-rule:evenodd;stroke:#000000;stroke-width:1px;stroke-linecap:butt;stroke-linejoin:miter;stroke-opacity:1"
   d="M 5.3164289,34.499258 L 22.022388,7.6288943 L 35.218773,39.643947"
   id="path2409"
   sodipodi:nodetypes="ccc" /><path
   style="fill:none;fill-rule:evenodd;stroke:#000000;stroke-width:1.01443148px;stroke-linecap:butt;stroke-linejoin:miter;stroke-opacity:1"
   d="M 4.8654075,34.63062 L 35.691718,39.776093"
   id="path2411"
   sodipodi:nodetypes="cc" /><path
   style="fill:none;fill-rule:evenodd;stroke:#000000;stroke-width:1px;stroke-linecap:butt;stroke-linejoin:miter;stroke-opacity:1"
   d="M 21.872975,7.2176878 C nan,nan nan,nan 38.061594,26.902174"
   id="path2392"
   sodipodi:nodetypes="cc" /><path
   style="fill:none;fill-rule:evenodd;stroke:#000000;stroke-width:1px;stroke-linecap:butt;stroke-linejoin:miter;stroke-opacity:1"
   d="M 37.785821,26.295283 L 35.22192,40.203804"
   id="path2394"
   sodipodi:nodetypes="cc" /><path
   style="fill:none;fill-rule:evenodd;stroke:#000000;stroke-width:1px;stroke-linecap:butt;stroke-linejoin:miter;stroke-opacity:1"
   d="M 21.876115,7.2318642 L 37.904509,26.6773"
   id="path2412"
   sodipodi:nodetypes="cc" /><path
   style="fill:none;fill-rule:evenodd;stroke:#000000;stroke-width:1px;stroke-linecap:butt;stroke-linejoin:miter;stroke-opacity:1"
   d="M 0.022247796,6.4531521 C 0.93994276,6.4484346 1.2405159,6.3898755 1.9526793,6.0733585 C 2.1392184,5.9904522 3.9945645,4.2071275 4.7854004,3.2721006 C 8.5247138,-1.1489919 9.4445534,3.2217051 14.660036,4.7153165 C 15.105962,4.8430208 17.66028,3.93525 19.369478,3.8038117 C 24.341505,3.4214603 35.817203,7.40686 36.991904,9.2728408 C 40.890302,15.465337 48.511889,15.02647 55.146043,15.121664"
   id="path2432"
   sodipodi:nodetypes="csssssc" /><path
   style="fill:none;fill-rule:evenodd;stroke:#000000;stroke-width:1px;stroke-linecap:butt;stroke-linejoin:miter;stroke-opacity:1"
   d="M -0.0065162245,11.757231 C 0.88467421,11.681525 1.7296943,11.806115 2.2787621,11.969376 C 2.8336773,12.134376 4.3167721,12.749799 4.9373179,13.374613 C 5.8105774,14.253878 6.2165303,14.801646 6.6084101,15.425498 C 7.1609171,16.30506 7.8154969,17.502695 8.2795023,18.387889 C 8.5907545,18.981672 9.2591559,19.700559 9.5708008,19.983023 C 10.15415,20.51175 10.533072,21.232702 11.127955,21.654115 C 11.588514,21.980373 11.263383,21.74931 12.60915,22.413702"
   id="path2434"
   sodipodi:nodetypes="cssssssc" /><path
   style="fill:none;fill-rule:evenodd;stroke:#000000;stroke-width:1px;stroke-linecap:butt;stroke-linejoin:miter;stroke-opacity:1"
   d="M 30.839247,17.70426 C 32.25207,17.70426 36.484941,17.095939 37.979368,17.172549 C 40.240146,17.288446 42.828791,19.033032 43.752232,19.603229 C 45.98418,20.981391 47.225521,21.905017 49.752972,23.477125 C 51.320898,24.452394 53.388941,26.189391 54.994125,26.13568"
   id="path2438"
   sodipodi:nodetypes="csssc" /><path
   style="fill:none;fill-rule:evenodd;stroke:#000000;stroke-width:1px;stroke-linecap:butt;stroke-linejoin:miter;stroke-opacity:1"
   d="M 36.839987,34.491141 C 37.282811,34.563556 37.889153,34.925999 38.511079,35.17477 C 39.141088,35.426773 39.218567,35.675272 39.694956,36.032564 C 40.1243,36.354572 40.354728,36.942458 40.713883,37.301614 C 41.27093,37.858662 42.954462,40.019029 43.372439,40.415922 C 44.883849,41.851089 45.286306,42.197396 46.86654,42.542767 C 49.466332,43.11097 49.358033,42.978249 51.120229,42.618726 C 53.278901,42.147383 52.891915,41.309703 55.088516,41.306761"
   id="path2444"
   sodipodi:nodetypes="cssssscc" /><path
   style="fill:none;fill-rule:evenodd;stroke:#000000;stroke-width:1px;stroke-linecap:butt;stroke-linejoin:miter;stroke-opacity:1"
   d="M 0,44.580078 C 0.88994019,44.628201 1.2499678,45.101033 1.6113281,45.546875 C 2.1009061,46.150909 2.2235763,46.12684 2.578125,46.835937 C 2.7626326,47.204952 2.8739284,47.270737 3.7597656,48.178711 C 4.2427977,48.673814 5.6394825,49.42941 6.015625,49.628906 C 8.7756916,51.092776 9.0547345,52.272048 12.246094,51.992188 C 13.161383,51.911924 17.505224,51.58595 19.013672,50.810547 C 19.801499,50.405571 23.794696,48.470881 26.962891,48.017578 C 30.129343,47.564525 32.789828,49.332794 33.300781,49.736329 C 37.44216,53.007059 40.782843,47.916347 44.257813,47.802734 C 48.564282,47.665447 53.588963,51.884766 55.053711,51.723633"
   id="path2448"
   sodipodi:nodetypes="csssssssssc" /></svg>